<?xml version="1.0" standalone="no"?>
<!DOCTYPE svg PUBLIC "-//W3C//DTD SVG 20010904//EN"
 "http://www.w3.org/TR/2001/REC-SVG-20010904/DTD/svg10.dtd">
<svg version="1.0" xmlns="http://www.w3.org/2000/svg"
 width="300.000000pt" height="300.000000pt" viewBox="0 0 300.000000 300.000000"
 preserveAspectRatio="xMidYMid meet">
<metadata>
Created by potrace 1.10, written by Peter Selinger 2001-2011
</metadata>
<g transform="translate(0.000000,300.000000) scale(0.100000,-0.100000)"
fill="#000000" stroke="none">
<path d="M1325 2929 c-497 -73 -940 -424 -1135 -902 -21 -52 -50 -141 -64
-198 l-26 -104 37 -31 38 -32 26 107 c72 289 178 481 379 682 205 206 429 330
695 384 110 23 342 23 458 1 471 -90 885 -459 1036 -922 21 -65 44 -149 51
-186 7 -38 14 -68 17 -68 2 0 11 7 19 15 8 8 25 21 36 30 l22 15 -18 77 c-156
666 -746 1149 -1394 1142 -65 -1 -144 -5 -177 -10z m1158 -461 c-4 -8 -63 54
-63 66 0 4 15 -8 34 -26 18 -18 31 -36 29 -40z"/>
<path d="M1494 2723 c3 -42 6 -100 6 -130 0 -29 5 -53 10 -53 6 0 10 50 10
130 0 114 -2 130 -16 130 -15 0 -16 -10 -10 -77z"/>
<path d="M1336 2772 c-8 -13 37 -242 47 -242 10 0 8 18 -14 173 -10 71 -20 90
-33 69z"/>
<path d="M1651 2713 c-25 -147 -28 -174 -20 -178 9 -6 13 7 33 110 21 113 22
128 9 132 -7 3 -15 -21 -22 -64z"/>
<path d="M1150 2715 c0 -3 21 -55 46 -115 53 -127 79 -140 33 -17 -17 45 -35
94 -41 110 -5 15 -16 27 -24 27 -8 0 -14 -2 -14 -5z"/>
<path d="M1827 2688 c-36 -89 -69 -189 -63 -195 3 -3 7 -4 9 -2 5 6 97 219 97
224 0 3 -7 5 -15 5 -8 0 -21 -15 -28 -32z"/>
<path d="M1030 2645 c0 -4 57 -102 67 -114 2 -2 6 -1 10 3 10 9 -49 116 -64
116 -7 0 -13 -2 -13 -5z"/>
<path d="M1931 2593 c-30 -54 -33 -72 -12 -59 11 7 61 94 61 107 0 24 -22 3
-49 -48z"/>
<path d="M845 2560 c-6 -10 137 -171 150 -170 16 1 3 22 -60 96 -72 85 -79 91
-90 74z"/>
<path d="M2081 2484 c-40 -47 -70 -88 -67 -92 4 -3 43 30 87 74 64 64 78 83
67 92 -11 8 -29 -7 -87 -74z"/>
<path d="M1442 2480 c-9 -11 -19 -30 -22 -43 -3 -12 -15 -24 -25 -26 -33 -6
-125 -105 -125 -135 l0 -26 -209 0 c-114 0 -232 -5 -261 -10 -172 -33 -275
-144 -274 -295 0 -78 29 -148 81 -197 31 -30 107 -67 137 -68 13 0 16 -5 11
-17 -4 -10 -50 -130 -102 -268 -52 -137 -100 -253 -105 -256 -7 -4 -9 -26 -6
-54 7 -62 51 -121 119 -159 67 -38 160 -42 225 -9 94 49 168 188 121 227 -12
9 -207 510 -207 530 0 3 13 6 28 6 41 0 128 47 161 86 25 32 37 58 56 132 9
33 22 27 28 -14 11 -68 69 -122 150 -139 l27 -5 0 -495 0 -495 -34 -14 c-37
-15 -56 -41 -56 -75 0 -12 -6 -21 -14 -21 -20 0 -56 -48 -56 -75 0 -16 -9 -26
-30 -35 -30 -13 -60 -54 -60 -84 0 -13 -23 -16 -142 -18 l-143 -3 -3 -32 c-3
-32 -5 -33 -50 -33 l-47 -1 30 -25 c100 -84 309 -194 461 -243 257 -83 572
-80 834 9 143 49 336 154 440 240 l25 21 -50 -3 -50 -3 -3 38 -3 37 -145 0
-144 0 0 26 c0 28 -49 84 -74 84 -10 0 -16 9 -16 24 0 38 -10 56 -41 72 -19 9
-29 22 -29 38 0 26 -35 62 -65 68 -20 3 -20 11 -20 503 l0 500 35 5 c69 12
121 61 140 130 14 52 26 51 34 -2 13 -86 104 -180 185 -194 59 -9 63 -12 52
-31 -14 -27 -191 -492 -191 -503 0 -5 -6 -13 -14 -17 -12 -6 -13 -17 -5 -55
20 -93 91 -159 190 -179 126 -25 253 55 280 175 11 50 10 58 -4 69 -9 6 -43
84 -76 172 -80 216 -119 316 -132 338 -13 23 -15 21 46 37 63 17 130 78 161
145 68 144 -11 322 -171 385 -56 22 -77 24 -302 28 l-241 4 -7 35 c-4 23 -15
40 -34 51 -15 8 -32 25 -37 36 -5 12 -23 25 -41 30 -24 7 -34 17 -38 38 -9 38
-41 58 -92 58 -31 0 -48 -6 -61 -20z m107 -64 c15 -8 33 -22 40 -30 12 -14 4
-16 -78 -16 -50 0 -91 4 -91 9 0 13 62 51 83 51 10 0 30 -6 46 -14z m112 -114
l22 -19 -49 -7 c-28 -3 -67 -15 -88 -25 -38 -20 -38 -20 -77 1 -22 11 -60 23
-85 26 -49 5 -52 9 -26 28 12 10 55 13 148 14 114 0 135 -3 155 -18z m-316
-51 c3 -5 1 -13 -5 -16 -15 -9 -43 3 -35 15 8 13 32 13 40 1z m137 -86 c-2
-16 -5 -31 -5 -31 -1 -1 -153 -4 -337 -8 -184 -3 -351 -11 -371 -16 -49 -14
-85 -44 -109 -91 -26 -50 -25 -85 2 -139 51 -98 177 -108 252 -20 14 18 26 40
26 51 0 12 7 19 20 19 25 0 26 -28 4 -73 -60 -120 -201 -148 -303 -61 -51 44
-75 105 -69 178 8 92 71 164 174 197 37 11 426 27 634 25 l85 -1 -3 -30z m663
20 c124 -8 203 -48 249 -128 35 -60 41 -106 22 -165 -30 -89 -104 -145 -192
-144 -94 1 -172 63 -188 150 -9 49 24 42 50 -11 70 -144 284 -99 284 61 0 88
-62 157 -151 167 -78 9 -239 14 -465 14 l-221 1 -1 28 c0 15 2 30 5 35 4 7
463 1 608 -8z m-977 -111 c-1 -5 -14 -19 -29 -31 -15 -13 -34 -40 -42 -62 -20
-50 -54 -58 -119 -28 -27 12 -48 27 -48 32 0 6 -14 30 -30 52 -27 37 -29 42
-13 46 32 8 283 -1 281 -9z m190 4 c-3 -7 -13 -13 -23 -13 -10 0 -20 6 -22 13
-3 7 5 12 22 12 17 0 25 -5 23 -12z m780 -3 c3 -3 -4 -15 -16 -28 -12 -13 -27
-38 -33 -56 -7 -20 -16 -30 -25 -27 -7 3 -27 -6 -43 -19 -25 -21 -30 -23 -41
-10 -7 8 -21 13 -33 12 -14 -1 -23 5 -25 18 -6 26 -60 105 -72 105 -6 0 -10 5
-10 11 0 9 40 10 147 5 80 -3 149 -8 151 -11z m-514 -14 l29 -12 -22 -23 c-20
-21 -27 -23 -59 -14 -20 6 -67 8 -103 4 -57 -5 -68 -3 -83 13 -20 22 -13 29
38 42 40 11 162 4 200 -10z m-783 -17 c35 -18 62 -73 53 -108 -7 -30 -51 -71
-83 -79 -38 -9 -89 17 -107 57 -23 47 -10 93 35 123 40 27 61 29 102 7z m1419
1 c65 -34 79 -103 32 -156 -24 -26 -36 -32 -72 -32 -36 0 -48 6 -72 32 -44 50
-33 126 23 157 32 17 54 17 89 -1z m-941 -20 c89 -76 40 -215 -76 -215 -116 0
-164 161 -65 222 42 26 104 23 141 -7z m511 10 c58 -30 77 -113 41 -169 -67
-101 -221 -56 -221 64 0 92 96 148 180 105z m-244 -99 c17 -14 18 -16 3 -31
-22 -23 -162 -9 -167 17 -2 12 5 18 25 21 63 9 120 6 139 -7z m26 -103 c10 -9
18 -20 18 -25 0 -4 -56 -8 -125 -8 -69 0 -125 3 -125 7 0 3 7 15 17 25 23 25
187 27 215 1z m-240 -50 c34 -31 19 -55 -21 -33 -14 7 -23 4 -37 -11 l-18 -20
-17 23 c-18 23 -17 23 14 40 41 22 56 22 79 1z m335 5 c36 -13 38 -19 23 -48
-10 -18 -11 -18 -36 7 -19 19 -28 23 -37 14 -15 -15 -27 -14 -27 2 0 15 20 37
34 37 5 0 25 -5 43 -12z m-267 -529 c0 -472 0 -479 -20 -479 -20 0 -20 7 -20
459 0 442 5 522 30 506 6 -4 10 -176 10 -486z m88 -4 l3 -475 -26 0 -26 0 3
473 c2 259 7 478 12 485 27 43 31 -17 34 -483z m82 5 c1 -471 1 -475 -20 -478
-20 -3 -20 -1 -20 457 0 445 5 530 30 505 6 -6 10 -201 10 -484z m76 448 c4
-18 7 -233 7 -478 -1 -428 -1 -445 -19 -445 -18 0 -19 18 -21 460 -1 253 0
468 3 478 8 27 22 20 30 -15z m-336 -454 c0 -376 -3 -475 -12 -472 -10 4 -14
105 -16 454 -1 247 0 459 3 472 3 12 10 22 15 22 6 0 10 -171 10 -476z m-544
299 c4 -16 38 -109 75 -208 37 -99 69 -186 71 -193 2 -10 -18 -14 -79 -16
l-82 -3 -3 223 c-3 209 2 263 18 197z m1414 -205 l0 -213 -80 0 c-44 0 -80 4
-80 8 0 11 153 417 157 417 2 0 3 -96 3 -212z m50 196 c0 -8 32 -100 71 -202
38 -103 71 -191 72 -196 1 -5 -34 -9 -78 -10 l-80 -1 -3 213 c-1 139 1 212 8
212 5 0 10 -7 10 -16z m-1512 -306 l-3 -100 -77 -2 c-43 0 -78 1 -78 3 0 6
139 383 148 401 8 17 14 -156 10 -302z m216 -162 c-37 -119 -180 -180 -292
-122 -24 13 -42 55 -24 57 4 0 16 2 27 4 11 2 40 7 65 10 71 10 107 24 124 50
10 15 27 25 48 27 48 5 60 -1 52 -26z m1458 4 c-8 -68 -96 -140 -177 -145 -57
-4 -119 12 -140 35 -29 32 -12 41 105 56 85 11 120 24 132 49 6 14 21 26 37
28 39 6 46 2 43 -23z m-1572 1 c0 -5 -46 -14 -102 -21 -59 -7 -110 -19 -119
-27 -15 -12 -19 -12 -33 2 -15 16 -21 37 -12 46 9 8 266 8 266 0z m1480 0 c0
-4 -51 -14 -112 -21 -75 -8 -119 -18 -131 -29 -17 -15 -20 -14 -33 4 -14 19
-18 38 -10 46 9 8 286 9 286 0z m-602 -361 c12 -12 22 -27 22 -35 0 -17 -107
-18 -375 -6 l-140 6 27 28 27 27 209 0 c196 0 210 -1 230 -20z m61 -96 c64
-53 61 -54 -294 -54 -179 0 -325 3 -325 6 0 16 24 45 48 58 22 12 77 15 284
16 l256 0 31 -26z m103 -131 c10 -9 18 -26 18 -38 l0 -22 -415 1 c-369 1 -415
3 -415 17 0 8 9 25 20 37 21 22 23 22 397 22 336 0 378 -2 395 -17z m328 -127
c0 -10 -22 -16 -77 -21 -79 -8 -80 -23 -3 -24 19 -1 42 -6 50 -11 10 -6 -225
-10 -673 -10 -396 0 -686 4 -683 9 3 5 32 12 63 16 69 9 61 13 -42 23 -48 4
-80 12 -83 20 -3 9 146 12 722 12 611 0 726 -2 726 -14z m-1444 -31 c20 -14
33 -25 29 -25 -6 0 23 -30 39 -41 22 -14 1155 -20 1269 -6 43 6 74 15 83 25 8
10 25 29 38 45 21 24 25 25 36 12 16 -19 12 -24 -65 -71 -144 -89 -335 -166
-444 -180 -25 -3 -62 -10 -81 -16 -96 -28 -356 -13 -500 27 -152 43 -347 130
-425 188 -5 4 -19 14 -30 21 -16 12 -17 16 -6 30 17 20 13 21 57 -9z"/>
<path d="M757 1992 c-24 -26 -21 -59 7 -77 55 -36 111 42 58 83 -22 17 -46 15
-65 -6z"/>
<path d="M2187 1992 c-24 -27 -21 -59 8 -78 23 -15 27 -15 50 0 25 16 29 26
25 56 -2 19 -29 40 -50 40 -9 0 -24 -8 -33 -18z"/>
<path d="M1196 1989 c-20 -16 -26 -29 -26 -58 0 -48 28 -75 77 -75 68 0 98 80
48 129 -30 30 -64 32 -99 4z m74 -34 c20 -24 3 -57 -28 -53 -30 3 -41 30 -22
53 16 19 34 19 50 0z"/>
<path d="M1716 1985 c-42 -39 -32 -95 21 -124 30 -15 69 -5 93 26 27 35 25 65
-6 97 -34 33 -73 34 -108 1z m72 -24 c8 -4 12 -19 10 -32 -4 -30 -51 -35 -56
-6 -8 39 15 58 46 38z"/>
<path d="M1148 218 c26 -26 572 -39 774 -18 180 19 88 26 -336 25 -245 0 -442
-3 -438 -7z"/>
<path d="M715 2461 c-5 -9 171 -161 187 -161 21 0 1 24 -81 94 -49 42 -92 76
-95 76 -2 0 -7 -4 -11 -9z"/>
<path d="M2195 2393 c-49 -41 -91 -79 -93 -84 -9 -22 24 -5 90 49 39 31 80 65
92 74 14 11 18 20 11 27 -7 6 -41 -16 -100 -66z"/>
<path d="M626 2353 c-12 -13 -5 -20 45 -52 70 -43 95 -36 32 9 -67 49 -69 50
-77 43z"/>
<path d="M2321 2317 c-37 -29 -49 -43 -38 -45 21 -4 107 55 107 73 0 22 -9 18
-69 -28z"/>
<path d="M475 2199 c-8 -12 -9 -12 33 -33 38 -20 57 -12 27 11 -37 27 -53 34
-60 22z"/>
<path d="M2493 2188 c-32 -19 -43 -38 -23 -38 18 0 70 30 70 40 0 18 -15 17
-47 -2z"/>
<path d="M390 2021 c0 -13 9 -18 53 -26 49 -10 48 8 -2 23 -46 14 -51 15 -51
3z"/>
<path d="M2568 2017 c-41 -16 -34 -30 9 -22 46 8 55 13 48 26 -7 11 -22 10
-57 -4z"/>
<path d="M345 1900 c-4 -6 -5 -13 -4 -14 9 -7 131 -27 136 -22 12 11 -9 24
-50 29 -23 3 -50 9 -59 12 -9 4 -19 1 -23 -5z"/>
<path d="M2591 1896 c-30 -7 -57 -18 -59 -25 -4 -11 3 -12 29 -7 19 3 51 9 72
13 21 3 36 10 34 16 -5 15 -15 16 -76 3z"/>
<path d="M246 1727 c-33 -43 -46 -86 -46 -152 l-1 -50 -26 54 c-18 38 -38 61
-71 82 -25 16 -50 29 -54 29 -13 0 -9 -59 6 -89 17 -33 73 -84 117 -107 30
-15 32 -15 55 7 14 13 36 47 50 76 22 44 26 63 22 108 -6 75 -19 85 -52 42z"/>
<path d="M388 1754 c-16 -15 6 -24 58 -24 30 0 54 5 54 10 0 6 -15 10 -32 10
-18 0 -42 3 -53 6 -11 3 -24 2 -27 -2z"/>
<path d="M2557 1751 c-52 -8 -42 -25 13 -22 49 3 60 7 60 22 0 10 -13 10 -73
0z"/>
<path d="M2720 1735 c-25 -67 5 -178 64 -234 l24 -22 38 20 c78 40 124 100
124 161 0 36 -4 36 -50 9 -42 -26 -55 -41 -83 -99 l-22 -45 -5 71 c-6 69 -29
124 -65 154 -12 10 -16 8 -25 -15z"/>
<path d="M436 1590 c-27 -3 -51 -10 -53 -16 -3 -8 13 -9 54 -2 31 5 59 11 61
12 8 9 -17 11 -62 6z"/>
<path d="M2515 1590 c-3 -5 11 -12 32 -15 21 -3 48 -8 61 -11 12 -2 22 0 22 5
0 6 -17 13 -37 16 -21 3 -46 8 -55 10 -10 2 -20 -1 -23 -5z"/>
<path d="M287 1502 c-25 -26 -40 -53 -48 -89 l-12 -52 -27 43 c-30 47 -80 82
-129 92 -35 7 -38 0 -17 -49 18 -44 67 -89 128 -118 l51 -24 48 53 c51 56 74
113 63 157 -3 14 -9 25 -13 25 -4 0 -23 -17 -44 -38z"/>
<path d="M2670 1496 c0 -61 12 -89 65 -145 l46 -49 47 26 c26 14 58 34 72 45
30 23 70 85 70 111 0 15 -5 17 -27 11 -57 -14 -108 -50 -133 -95 l-24 -45 -8
44 c-4 24 -14 54 -23 67 -18 27 -67 74 -77 74 -5 0 -8 -20 -8 -44z"/>
<path d="M301 1315 c-24 -28 -31 -45 -31 -78 l0 -42 -32 39 c-34 42 -97 75
-141 76 -25 0 -27 -3 -22 -22 8 -25 50 -75 76 -88 9 -5 39 -18 67 -29 l50 -20
28 27 c39 39 67 106 59 142 -8 38 -16 38 -54 -5z"/>
<path d="M2657 1324 c-7 -41 11 -92 49 -134 l34 -38 53 20 c67 25 111 55 131
89 23 38 20 49 -12 49 -42 0 -114 -41 -139 -79 -13 -19 -23 -32 -24 -30 0 2
-1 21 -3 42 -3 37 -32 78 -67 98 -13 7 -18 3 -22 -17z"/>
<path d="M359 1188 c-32 -35 -54 -91 -45 -113 9 -24 -3 -18 -37 19 -32 34 -87
56 -140 56 l-28 0 18 -30 c22 -38 46 -54 120 -81 32 -12 63 -26 69 -31 15 -11
72 59 90 112 14 40 9 100 -8 100 -5 0 -22 -14 -39 -32z"/>
<path d="M2603 1205 c-3 -9 -3 -36 -1 -60 6 -52 73 -151 92 -137 6 5 44 21 84
37 51 19 80 36 97 59 14 18 25 36 25 41 0 12 -99 -4 -132 -21 -16 -8 -38 -29
-48 -47 l-20 -32 0 33 c0 37 -22 85 -53 120 -24 26 -35 28 -44 7z"/>
<path d="M408 1025 c-27 -25 -45 -82 -35 -110 4 -8 2 -17 -3 -20 -5 -3 -11 3
-15 14 -9 29 -55 72 -100 92 -43 20 -105 25 -105 9 0 -26 71 -86 151 -125 l88
-43 29 51 c37 66 43 95 29 130 l-12 27 -27 -25z"/>
<path d="M2570 1035 c-19 -22 -7 -96 23 -148 l26 -44 63 28 c109 50 132 65
160 105 l27 39 -31 3 c-47 5 -113 -25 -152 -69 -20 -21 -36 -44 -36 -49 0 -6
-4 -10 -9 -10 -5 0 -7 17 -4 38 5 40 -12 87 -40 110 -11 10 -17 9 -27 -3z"/>
<path d="M476 911 c-24 -27 -37 -79 -29 -125 l6 -41 -42 38 c-23 21 -53 42
-67 47 -31 12 -124 13 -124 1 0 -18 52 -63 93 -81 24 -11 66 -24 93 -30 37 -8
54 -18 71 -42 12 -18 21 -33 20 -35 -2 -1 -21 6 -42 17 -38 20 -135 28 -135
12 0 -40 99 -98 185 -108 42 -5 64 -14 85 -34 17 -16 30 -30 30 -33 0 -2 -19
2 -42 11 -55 19 -141 10 -136 -16 4 -23 91 -64 147 -70 94 -9 151 47 151 147
0 41 -17 101 -29 101 -4 0 -18 -11 -30 -24 -18 -19 -23 -36 -23 -75 1 -27 6
-60 12 -71 20 -37 5 -31 -43 18 l-47 47 21 42 c26 53 34 107 22 153 -12 44
-31 44 -60 1 -26 -39 -29 -77 -9 -126 24 -57 2 -48 -41 18 l-40 62 24 36 c28
42 38 93 29 143 -8 40 -24 46 -50 17z"/>
<path d="M2484 895 c-9 -51 1 -102 29 -144 l25 -37 -41 -62 c-22 -34 -42 -60
-45 -57 -3 2 1 25 8 50 14 50 9 92 -16 130 -23 35 -40 31 -54 -11 -15 -46 -8
-102 20 -155 24 -47 29 -33 -43 -114 -34 -37 -41 -29 -21 23 20 49 13 95 -20
136 l-23 30 -14 -25 c-18 -32 -18 -149 0 -182 36 -68 162 -75 251 -14 51 34
48 45 -12 52 -37 4 -66 2 -98 -10 l-45 -16 33 34 c27 28 43 36 88 41 86 10
184 68 184 110 0 14 -113 0 -149 -19 -31 -15 -32 -15 -22 2 23 40 38 50 91 63
30 7 72 21 92 31 36 19 88 66 88 81 0 5 -23 8 -50 8 -60 0 -116 -26 -153 -69
l-25 -30 1 64 c2 50 -2 69 -19 92 -31 42 -52 41 -60 -2z"/>
</g>
</svg>
